<svg width="65" height="64" viewBox="0 0 65 64" fill="none" xmlns="http://www.w3.org/2000/svg">
    <path d="M32.39 39.073a6.877 6.877 0 0 1-4.932-2.026 6.829 6.829 0 0 1-1.491-2.256 7.157 7.157 0 0 1-.535-2.753 6.876 6.876 0 0 1 2.026-4.932 6.879 6.879 0 0 1 4.932-2.026c1.937 0 3.58.676 4.932 2.026 1.35 1.351 2.026 2.995 2.026 4.932 0 .969-.178 1.886-.535 2.753a6.829 6.829 0 0 1-1.491 2.256 6.877 6.877 0 0 1-4.932 2.026zm11.163-7.035c0-.459-.025-.93-.076-1.414a9.722 9.722 0 0 0-.23-1.338h3.136v15.369c0 .407-.128.739-.383.994s-.586.382-.994.382H19.773c-.407 0-.739-.127-.994-.382s-.382-.587-.382-.994v-15.37h3.135a9.722 9.722 0 0 0-.23 1.339c-.05.484-.076.955-.076 1.414 0 1.53.293 2.982.88 4.359a11.606 11.606 0 0 0 2.37 3.593A10.83 10.83 0 0 0 28.03 42.4c1.377.586 2.83.88 4.359.88 1.53 0 2.982-.294 4.358-.88a10.83 10.83 0 0 0 3.556-2.409 11.606 11.606 0 0 0 2.37-3.593c.586-1.377.88-2.83.88-4.359zM32.697 0c4.434 0 8.59.841 12.463 2.523 3.874 1.682 7.264 3.964 10.17 6.844 2.905 2.88 5.2 6.257 6.882 10.131 1.682 3.874 2.523 8.029 2.523 12.464 0 4.435-.841 8.59-2.523 12.463-1.683 3.875-3.977 7.264-6.882 10.17-2.906 2.906-6.296 5.2-10.17 6.882C41.285 63.159 37.13 64 32.696 64c-4.435 0-8.59-.841-12.464-2.523-3.874-1.682-7.251-3.976-10.131-6.882-2.88-2.906-5.162-6.295-6.844-10.17C1.575 40.551.734 36.397.734 31.962c0-4.435.841-8.59 2.523-12.464 1.682-3.874 3.964-7.251 6.844-10.131 2.88-2.88 6.257-5.162 10.131-6.844C24.106.841 28.261 0 32.696 0zm17.892 18.045c0-1.172-.408-2.166-1.223-2.982-.816-.815-1.81-1.223-2.982-1.223H18.397c-1.172 0-2.166.408-2.982 1.223-.816.816-1.223 1.81-1.223 2.982v27.986c0 1.172.407 2.166 1.223 2.982.816.816 1.81 1.224 2.982 1.224h27.986c1.172 0 2.166-.408 2.982-1.224.815-.816 1.223-1.81 1.223-2.982V18.045zm-5.582 0c.408 0 .74.14.994.421.255.28.383.624.383 1.032v4.206c0 .407-.128.739-.383.994s-.586.382-.994.382h-4.205c-.408 0-.752-.127-1.032-.382s-.421-.587-.421-.994v-4.206c0-.408.14-.752.42-1.032.28-.28.625-.42 1.033-.42h4.205z" fill="#16007E"/>
</svg>
