<svg width="64" height="64" viewBox="0 0 64 64" fill="none" xmlns="http://www.w3.org/2000/svg">
    <path d="M31.962 0c4.424 0 8.582.84 12.472 2.517 3.89 1.678 7.285 3.967 10.183 6.866 2.9 2.898 5.188 6.28 6.866 10.145C63.16 23.393 64 27.538 64 31.962c0 4.424-.84 8.582-2.517 12.472-1.678 3.89-3.967 7.285-6.866 10.183-2.898 2.9-6.293 5.188-10.183 6.866C40.544 63.16 36.386 64 31.962 64c-4.424 0-8.57-.84-12.434-2.517-3.865-1.678-7.247-3.967-10.145-6.866-2.9-2.898-5.188-6.293-6.866-10.183C.84 40.544 0 36.386 0 31.962c0-4.424.84-8.57 2.517-12.434 1.678-3.865 3.967-7.247 6.866-10.145 2.898-2.9 6.28-5.188 10.145-6.866C23.393.84 27.538 0 31.962 0zm12.052 13.96h-6.789c-1.322 0-2.542.228-3.661.686a9.884 9.884 0 0 0-2.937 1.83 8.28 8.28 0 0 0-1.945 2.594c-.458.967-.687 1.933-.687 2.899v4.043H21.97v7.933h6.026v16.02h8.01v-16.02h5.95v-7.933h-5.95v-2.06c0-.61.241-1.093.724-1.449.484-.356.903-.534 1.26-.534h6.025v-8.01z" fill="#16007E"/>
</svg>
