<svg width="62" height="62" viewBox="0 0 62 62" fill="none" xmlns="http://www.w3.org/2000/svg">
<path fill-rule="evenodd" clip-rule="evenodd" d="M31 6.2C26.6624 6.1992 22.4004 7.33611 18.6394 9.49725C14.8785 11.6584 11.7502 14.7681 9.56667 18.5162C7.38319 22.2642 6.22092 26.5193 6.19589 30.8569C6.17086 35.1945 7.28394 39.4627 9.42402 43.2357C10.8705 41.3558 12.73 39.8337 14.8586 38.7871C16.9872 37.7406 19.328 37.1975 21.7 37.2H40.3C42.672 37.1975 45.0128 37.7406 47.1414 38.7871C49.2701 39.8337 51.1295 41.3558 52.576 43.2357C54.7161 39.4627 55.8291 35.1945 55.8041 30.8569C55.7791 26.5193 54.6168 22.2642 52.4333 18.5162C50.2498 14.7681 47.1215 11.6584 43.3606 9.49725C39.5996 7.33611 35.3376 6.1992 31 6.2ZM55.6233 49.8356C56.0118 49.3293 56.3838 48.8105 56.7393 48.2794C60.176 43.1727 62.008 37.1554 62 31C62 13.8787 48.1213 0 31 0C13.8787 0 3.17919e-05 13.8787 3.17919e-05 31C-0.00973731 37.8099 2.23215 44.4321 6.37673 49.8356L6.36123 49.8914L7.46172 51.1717C10.3692 54.5709 13.9791 57.2992 18.0427 59.1686C22.1064 61.038 26.527 62.004 31 62C31.6696 62 32.3351 61.9793 32.9964 61.938C38.59 61.5853 43.9818 59.7151 48.5925 56.5285C50.7975 55.0073 52.7961 53.2067 54.5383 51.1717L55.6388 49.8914L55.6233 49.8356ZM31 12.4C28.5335 12.4 26.168 13.3798 24.4239 15.1239C22.6798 16.868 21.7 19.2335 21.7 21.7C21.7 24.1665 22.6798 26.532 24.4239 28.2761C26.168 30.0202 28.5335 31 31 31C33.4665 31 35.832 30.0202 37.5761 28.2761C39.3202 26.532 40.3 24.1665 40.3 21.7C40.3 19.2335 39.3202 16.868 37.5761 15.1239C35.832 13.3798 33.4665 12.4 31 12.4Z" fill="#190090"/>
</svg>
