<svg width="65" height="64" viewBox="0 0 65 64" fill="none" xmlns="http://www.w3.org/2000/svg">
    <path d="M46.652 39.073c.408 0 .688.127.841.382.204.204.306.56.306 1.07v1.3h-2.294v-1.3c0-.458.077-.815.23-1.07.255-.255.56-.382.917-.382zm-8.946 0c.357 0 .612.102.765.306.204.204.306.51.306.917v6.423c0 .408-.077.688-.23.841-.153.204-.382.306-.688.306-.204 0-.408-.05-.612-.153a1.393 1.393 0 0 1-.611-.459v-7.722c.203-.204.382-.332.535-.383.102-.05.28-.076.535-.076zM32.506 0c4.435 0 8.59.841 12.464 2.523 3.874 1.682 7.251 3.964 10.132 6.844 2.88 2.88 5.16 6.257 6.843 10.131 1.682 3.874 2.523 8.029 2.523 12.464 0 4.435-.84 8.59-2.523 12.463-1.682 3.875-3.963 7.264-6.843 10.17-2.88 2.906-6.258 5.2-10.132 6.882C41.096 63.159 36.941 64 32.507 64c-4.435 0-8.59-.841-12.464-2.523-3.874-1.682-7.264-3.976-10.17-6.882-2.905-2.906-5.2-6.295-6.881-10.17C1.309 40.551.468 36.397.468 31.962c0-4.435.841-8.59 2.524-12.464 1.682-3.874 3.976-7.251 6.881-10.131 2.906-2.88 6.296-5.162 10.17-6.844C23.917.841 28.072 0 32.507 0zm-9.022 32.803H14.46v2.447h3.059v14.375h2.905V35.25h3.059v-2.447zm.076-7.952 3.823-10.858H24.02l-1.988 7.417h-.23l-2.14-7.417h-3.288l3.9 11.164v7.34h3.287v-7.646zm8.488 12.387h-2.6v9.405c-.102.153-.23.28-.382.382l-.46.306c-.305.153-.534.23-.687.23-.255 0-.434-.052-.536-.154-.101-.101-.152-.33-.152-.688v-9.481h-2.6v10.399c0 .713.153 1.249.459 1.605.305.408.739.612 1.3.612.458 0 .968-.153 1.529-.459.459-.203.968-.586 1.529-1.147v1.377h2.6V37.238zm-.23-4.435c1.377 0 2.422-.331 3.135-.994.765-.612 1.147-1.53 1.147-2.753v-7.035c0-.968-.382-1.81-1.147-2.523-.713-.663-1.707-.994-2.982-.994-1.325 0-2.37.306-3.135.918-.815.611-1.223 1.453-1.223 2.523v7.111c0 1.173.382 2.09 1.147 2.753.713.662 1.733.994 3.058.994zm9.635 7.417c0-1.02-.23-1.81-.688-2.37-.357-.51-.969-.765-1.836-.765-.458 0-.866.102-1.223.306-.408.153-.765.433-1.07.84v-5.428h-2.677v16.822h2.676v-.918c.154.204.32.37.498.497.178.128.37.242.573.344.357.153.816.23 1.376.23.765 0 1.351-.23 1.759-.688.408-.51.612-1.173.612-1.988V40.22zm-.918-7.57c.612 0 1.173-.127 1.682-.382.51-.255 1.07-.689 1.683-1.3v1.529h2.905V18.81H43.9v10.4c-.204.254-.51.509-.918.764-.306.153-.56.23-.765.23-.356 0-.56-.077-.611-.23-.153-.153-.23-.383-.23-.689V18.81h-2.905v11.47c0 .815.178 1.401.535 1.758.255.408.764.612 1.53.612zm9.94 7.952c0-1.223-.33-2.14-.994-2.752-.611-.612-1.529-.918-2.752-.918-1.173 0-2.116.331-2.83.994-.713.714-1.07 1.606-1.07 2.676v5.506c0 1.223.331 2.166.994 2.829.714.713 1.631 1.07 2.753 1.07 1.274 0 2.243-.331 2.905-.994.663-.612.994-1.58.994-2.905v-.612H47.8v.535c0 .765-.076 1.249-.23 1.453-.203.204-.509.306-.917.306-.51 0-.815-.128-.917-.383-.153-.203-.23-.662-.23-1.376v-2.294h4.97v-3.135zM31.818 20.875c.357 0 .689.076.994.229.204.204.306.459.306.765v7.416c0 .408-.102.689-.306.842-.204.204-.535.306-.994.306-.408 0-.688-.102-.84-.306-.256-.153-.383-.434-.383-.841v-7.417c0-.255.127-.51.382-.765.204-.153.485-.23.841-.23z" fill="#16007E"/>
</svg>
